Coordinates
version=1
nRows=8
nColumns=40
inDegrees=yes

Units are S.I. units (second, meters, Newtons, ...)
Angles are in degrees.

endheader
time	pelvis_tilt	pelvis_list	pelvis_rotation	pelvis_tx	pelvis_ty	pelvis_tz	hip_flexion_r	hip_adduction_r	hip_rotation_r	knee_angle_r	knee_angle_r_beta	ankle_angle_r	subtalar_angle_r	mtp_angle_r	hip_flexion_l	hip_adduction_l	hip_rotation_l	knee_angle_l	knee_angle_l_beta	ankle_angle_l	subtalar_angle_l	mtp_angle_l	lumbar_extension	lumbar_bending	lumbar_rotation	arm_flex_r	arm_add_r	arm_rot_r	elbow_flex_r	pro_sup_r	wrist_flex_r	wrist_dev_r	arm_flex_l	arm_add_l	arm_rot_l	elbow_flex_l	pro_sup_l	wrist_flex_l	wrist_dev_l
      1.57500000	     -7.25300002	     -9.98301815	      0.68910766	     -1.10074950	      0.96946527	      0.23677830	     48.17967518	      7.89446958	     -8.95611272	     52.41828197	     52.41828197	      0.45588758	      0.00000000	      0.00000000	    -20.66817844	    -14.91134273	     -8.03830904	     18.75386156	     18.75386156	    -31.70683485	      0.00000000	      0.00000000	    -15.43960975	     13.00943389	     -5.49176776	    -55.82460834	    -36.92542044	    -21.17273503	    119.27532106	     47.87316783	      0.00000000	      0.00000000	     12.92029382	    -29.20014587	      6.44534300	    134.78533388	     48.64815022	      0.00000000	      0.00000000
      1.58000000	     -7.19256918	    -10.36515566	      0.56992957	     -1.07511348	      0.97135629	      0.23575728	     47.38346695	      8.40276488	     -9.05062020	     47.67929524	     47.67929524	     -0.01265400	      0.00000000	      0.00000000	    -21.88471065	    -14.86203262	     -6.48698004	     18.29770648	     18.29770648	    -32.43019586	      0.00000000	      0.00000000	    -15.59985696	     13.88598960	     -5.78222273	    -55.53561173	    -37.12073224	    -21.22589697	    119.63071041	     47.93786963	      0.00000000	      0.00000000	     11.47548802	    -29.20186484	      5.84525985	    136.07355991	     48.79352884	      0.00000000	      0.00000000
      1.58500000	     -7.14589546	    -10.70989636	      0.57090624	     -1.04959561	      0.97303763	      0.23443083	     46.45989437	      8.80369654	     -9.19082069	     42.81289097	     42.81289097	     -0.65391005	      0.00000000	      0.00000000	    -22.82116637	    -14.79616043	     -4.48831779	     18.33010446	     18.33010446	    -32.65441675	      0.00000000	      0.00000000	    -15.59508938	     14.66801145	     -5.82326042	    -55.19058402	    -37.11205968	    -21.27708066	    119.70065339	     47.94264955	      0.00000000	      0.00000000	     10.92052325	    -29.01545144	      6.21753223	    136.47188351	     48.84871423	      0.00000000	      0.00000000
      1.59000000	     -7.08170646	    -10.94375924	      0.73061082	     -1.02416979	      0.97451405	      0.23267247	     45.41578855	      8.99207638	     -9.41008914	     37.94921654	     37.94921654	     -1.44658373	      0.00000000	      0.00000000	    -23.49579451	    -14.63871302	     -2.00083033	     18.85283634	     18.85283634	    -32.34319788	      0.00000000	      0.00000000	    -15.58636474	     15.38798571	     -5.99356908	    -54.96496641	    -37.08474405	    -21.32582054	    119.76813032	     47.94468619	      0.00000000	      0.00000000	     10.62071384	    -28.90039772	      6.46192395	    136.59280869	     48.87072152	      0.00000000	      0.00000000
      1.59500000	     -7.06702908	    -11.03710523	      0.97556393	     -0.99890961	      0.97561619	      0.23069305	     44.38257414	      8.99805513	     -9.65425279	     33.22077483	     33.22077483	     -2.41204104	      0.00000000	      0.00000000	    -23.83566702	    -14.35042403	      0.80916385	     19.89921623	     19.89921623	    -31.71564935	      0.00000000	      0.00000000	    -15.67946632	     16.04653230	     -6.87865768	    -53.89609671	    -37.54187346	    -20.94644479	    119.87277054	     47.96477353	      0.00000000	      0.00000000	      8.46334269	    -29.21111195	      6.01048664	    137.83110151	     49.06300656	      0.00000000	      0.00000000
      1.60000000	     -7.06285342	    -10.96313938	      1.34908772	     -0.97378106	      0.97637881	      0.22840157	     43.38092329	      8.75301540	     -9.99049719	     28.80680551	     28.80680551	     -3.43684994	      0.00000000	      0.00000000	    -23.92882554	    -13.89449712	      4.03760094	     21.34654372	     21.34654372	    -30.83121251	      0.00000000	      0.00000000	    -15.50603664	     16.50580046	     -7.19336986	    -53.57197101	    -37.44098056	    -20.98112996	    119.93888861	     47.96543558	      0.00000000	      0.00000000	      8.10261813	    -29.04345626	      6.30653090	    137.78399657	     49.07866425	      0.00000000	      0.00000000
      1.60500000	     -7.11638746	    -10.69640316	      1.76017983	     -0.94882981	      0.97670608	      0.22604110	     42.51854302	      8.29782266	    -10.34382429	     24.85050458	     24.85050458	     -4.48194771	      0.00000000	      0.00000000	    -23.71107424	    -13.23486728	      7.24069584	     23.27844753	     23.27844753	    -29.72950284	      0.00000000	      0.00000000	    -15.33293787	     16.74512149	     -7.76158214	    -52.65684534	    -37.29372883	    -20.84400234	    119.90539779	     47.95748370	      0.00000000	      0.00000000	      6.97821903	    -29.03254422	      6.90820190	    137.89662679	     49.14525939	      0.00000000	      0.00000000
      1.61000000	     -7.20429409	    -10.27144936	      2.17260151	     -0.92401497	      0.97665572	      0.22376595	     41.80573766	      7.68581045	    -10.73032128	     21.45845906	     21.45845906	     -5.44430439	      0.00000000	      0.00000000	    -23.29565087	    -12.39768738	     10.27255761	     25.52002517	     25.52002517	    -28.64599308	      0.00000000	      0.00000000	    -15.07970942	     16.74821539	     -9.32202849	    -50.40597316	    -38.69902113	    -19.10133117	    119.27813979	     47.91133323	      0.00000000	      0.00000000	      4.63795695	    -29.38477332	      5.78754050	    138.57562751	     49.42479560	      0.00000000	      0.00000000
